<svg width="111" height="111" viewBox="0 0 111 111" fill="none" xmlns="http://www.w3.org/2000/svg">
<rect width="111" height="111" rx="8" fill="#6D1718"/>
<path d="M35.2879 39.6647C35.3184 39.5668 35.3452 39.467 35.3643 39.3654C35.6011 38.1418 36.7507 30.7137 30.21 29.1964C23.0772 27.5418 16.4467 35.7323 18.2094 51.8629C19.9721 67.9935 23.9996 82.7198 28.1131 86.0272C32.2266 89.3346 38.4351 93.1409 43.723 85.0351C48.9003 77.0969 50.1893 55.2004 52.3797 53.2032C52.4867 53.1072 52.5955 53.013 52.691 52.9076C53.6058 51.8873 57.9465 47.537 58.9969 55.6277C60.0453 63.7147 57.0738 69.0947 56.5964 70.2787C56.5333 70.4369 56.4398 70.5818 56.3863 70.7437C55.6988 72.7899 51.6827 85.935 60.3394 90.6599C69.739 95.7895 85.3489 83.9584 87.1956 78.8306C89.0423 73.7029 96.343 64.1891 89.8806 41.5226C83.4182 18.8562 79.9769 18.9391 74.9429 19.1047C69.9089 19.2704 70.7473 27.1295 71.3336 28.7842C71.9198 30.4389 85.2648 63.197 85.0128 68.2438C84.7607 73.2906 84.8447 83.2167 75.025 82.059C65.2053 80.9013 63.4446 67.8297 65.9616 59.4754C68.4785 51.1212 76.1995 32.0107 58.0726 28.9498C40.4307 25.9718 42.1838 54.0597 42.2908 55.5656C42.2946 55.6127 42.2965 55.6579 42.2965 55.7049C42.3251 57.4104 42.7109 86.7952 34.1554 84.7867C25.6 82.7781 26.9272 70.3126 29.597 57.6175C29.6161 57.5309 29.6371 57.4443 29.6657 57.3596L35.2917 39.6628L35.2879 39.6647Z" fill="#F9F4F0"/>
</svg>
