<svg width="52" height="52" viewBox="0 0 52 52" fill="none" xmlns="http://www.w3.org/2000/svg">
<rect width="52" height="52" rx="10" fill="#F9F4F0"/>
<path d="M16.5312 18.5816C16.5456 18.5358 16.5581 18.4891 16.567 18.4414C16.678 17.8682 17.2165 14.3884 14.1524 13.6776C10.8109 12.9025 7.70476 16.7394 8.53051 24.2961C9.35626 31.8528 11.243 38.7516 13.1701 40.301C15.0971 41.8505 18.0056 43.6336 20.4828 39.8363C22.9082 36.1175 23.5121 25.8597 24.5382 24.924C24.5883 24.879 24.6393 24.8349 24.6841 24.7855C25.1126 24.3076 27.1461 22.2696 27.6381 26.0598C28.1293 29.8483 26.7372 32.3687 26.5136 32.9234C26.4841 32.9974 26.4402 33.0653 26.4152 33.1412C26.0931 34.0998 24.2117 40.2578 28.2671 42.4713C32.6705 44.8744 39.9832 39.3319 40.8484 36.9297C41.7135 34.5275 45.1337 30.0705 42.1062 19.452C39.0788 8.83355 37.4666 8.87235 35.1084 8.94995C32.7501 9.02756 33.1428 12.7093 33.4175 13.4845C33.6922 14.2596 39.9439 29.6058 39.8258 31.9701C39.7077 34.3344 39.7471 38.9844 35.1468 38.4421C30.5466 37.8997 29.7218 31.7761 30.9009 27.8624C32.08 23.9487 35.697 14.996 27.2051 13.5621C18.9405 12.167 19.7618 25.3252 19.8119 26.0307C19.8137 26.0528 19.8146 26.0739 19.8146 26.096C19.828 26.895 20.0087 40.6608 16.0007 39.7199C11.9927 38.7789 12.6145 32.9392 13.8652 26.992C13.8742 26.9514 13.884 26.9108 13.8974 26.8712L16.533 18.5808L16.5312 18.5816Z" fill="#6D1718"/>
</svg>
