<svg width="136" height="69" viewBox="0 0 136 69" fill="none" xmlns="http://www.w3.org/2000/svg">
<path d="M0.0649784 67.3747L0 58.3318C0 57.2639 0.714764 56.5093 1.62446 56.4281C3.68211 56.2423 5.25243 54.3386 5.31741 52.2026C5.38239 50.0667 3.90954 48.0469 1.84106 47.7915C0.747253 47.6522 0 46.9092 0 45.6323V40.8149C0 39.6656 0.682274 38.8995 1.79774 38.7834C3.94203 38.5628 5.44736 36.4153 5.30658 34.2213C5.16579 32.0274 3.57382 30.2861 1.34289 30.1004C0.606466 30.0423 0.032489 29.1253 0.032489 28.452L0.0108295 23.1238C0.0108295 21.9978 0.758082 21.3013 1.79774 21.1968C3.94203 20.9646 5.43653 18.8171 5.30658 16.6463C5.17662 14.4756 3.56299 12.7459 1.37538 12.5022C0.573977 12.4209 0.0216595 11.5155 0.0216595 10.7029V1.97341C0.0216595 0.766149 0.85555 0 2.0035 0H28.7422C29.9984 0 30.6699 0.754541 30.8431 2.01985C31.1572 4.28347 33.0957 5.89703 35.0559 5.79255C37.2002 5.67647 38.868 3.93522 39.0304 1.61356C39.0737 1.07957 39.6261 0.011608 40.4599 0.011608H134.397C135.394 0.011608 136 1.1144 136 2.06628V66.9568C136 67.9435 135.437 68.9999 134.397 68.9999H40.8606C39.7993 69.0115 39.1062 68.2453 38.9979 67.2122C38.7488 64.8905 36.9728 63.1957 34.9043 63.2189C32.8358 63.2421 31.0272 64.8905 30.8106 67.2238C30.724 68.0828 30.1175 68.9883 29.1537 68.9883H1.58114C0.898869 68.9883 0.0758082 68.1292 0.0649784 67.3631V67.3747ZM36.5937 57.972C36.6695 58.622 36.5612 59.098 36.6804 59.6784C39.3553 60.4445 41.348 62.4876 42.2144 65.2736L132.502 65.2388L132.469 3.74949H42.2577C41.3805 6.61674 39.3228 8.57855 36.6587 9.29827C36.5829 9.9019 36.6587 10.3778 36.6262 10.9234C36.5721 11.9682 35.7923 12.6995 34.9043 12.6879C34.1245 12.6763 33.3123 12.1191 33.1715 11.144C33.0849 10.552 33.1607 10.0412 33.139 9.29827C30.4533 8.59016 28.4931 6.57031 27.5509 3.73788H3.60631L3.57382 9.2054C6.77942 10.4127 8.85873 13.4773 8.79376 17.0178C8.72878 20.5583 6.71444 23.5069 3.59548 24.6329V26.792C6.75776 27.9993 8.85873 31.0755 8.79376 34.6044C8.72878 38.1333 6.71444 41.0586 3.59548 42.2195C3.59548 43.0437 3.5305 43.6589 3.59548 44.367C6.77942 45.5395 8.83708 48.6505 8.78293 52.191C8.72878 55.7316 6.71444 58.6685 3.56299 59.8061L3.59548 65.262H27.5725C28.4931 62.4876 30.3774 60.3981 33.0632 59.7597C33.2257 59.1212 33.0632 58.5292 33.1715 57.8791C33.3448 56.904 34.0812 56.3004 34.9043 56.3004C35.6732 56.3004 36.4638 56.904 36.5937 57.9604V57.972Z" fill="#6D1718"/>
<path d="M36.6539 18.167C36.6214 19.3511 36.5673 20.3958 35.5276 20.7789C34.8237 21.0343 33.6649 20.9066 33.2967 19.8154C33.0043 18.9332 33.0368 17.8536 33.21 16.9482C33.4266 15.857 34.4988 15.4159 35.2785 15.6132C36.3507 15.8918 36.6864 16.8901 36.6539 18.167Z" fill="#6D1718"/>
<path d="M36.6458 50.647C36.6458 51.9123 36.505 52.9803 35.4112 53.3517C34.6207 53.6303 33.4402 53.2473 33.1911 52.0748C33.0287 51.3203 33.0503 50.4497 33.1695 49.6719C33.3644 48.4995 34.4041 47.9771 35.2921 48.1744C36.3101 48.4066 36.6458 49.4049 36.6458 50.6354V50.647Z" fill="#6D1718"/>
<path d="M35.3102 31.9346C37.1946 32.4105 36.7939 35.9975 36.1117 36.6592C35.581 37.17 34.8013 37.3441 34.0973 36.9726C32.8302 36.2993 33.0035 33.8616 33.1984 33.1883C33.5017 32.1552 34.4547 31.7373 35.3102 31.9462V31.9346Z" fill="#6D1718"/>
<path d="M36.6527 42.6375C36.6418 43.8796 36.4685 44.8547 35.483 45.1913C34.5517 45.5048 33.4146 45.0752 33.1871 43.8564C33.0463 43.0786 33.0463 42.208 33.1871 41.4186C33.3929 40.3042 34.4434 39.8283 35.2989 40.0605C36.3494 40.3391 36.6635 41.3722 36.6418 42.6375H36.6527Z" fill="#6D1718"/>
<path d="M36.6659 26.3971C36.6659 27.6857 36.3518 28.7304 35.2905 28.9742C34.3375 29.2064 33.2762 28.5911 33.1462 27.4187C33.0704 26.7222 33.0271 25.956 33.1787 25.2015C33.4061 24.0755 34.4675 23.5763 35.2905 23.7853C36.3843 24.0639 36.6551 25.1086 36.6659 26.3855V26.3971Z" fill="#6D1718"/>
</svg>
