<svg width="56" height="55" viewBox="0 0 56 55" fill="none" xmlns="http://www.w3.org/2000/svg">
<path d="M46.667 27.5V50.4167H9.33366V27.5M28.0003 50.4167V16.0417M28.0003 16.0417H17.5003C15.9532 16.0417 14.4695 15.4381 13.3755 14.3637C12.2816 13.2892 11.667 11.832 11.667 10.3125C11.667 8.79307 12.2816 7.33584 13.3755 6.26141C14.4695 5.18698 15.9532 4.58337 17.5003 4.58337C25.667 4.58337 28.0003 16.0417 28.0003 16.0417ZM28.0003 16.0417H38.5003C40.0474 16.0417 41.5312 15.4381 42.6251 14.3637C43.7191 13.2892 44.3337 11.832 44.3337 10.3125C44.3337 8.79307 43.7191 7.33584 42.6251 6.26141C41.5312 5.18698 40.0474 4.58337 38.5003 4.58337C30.3337 4.58337 28.0003 16.0417 28.0003 16.0417ZM4.66699 16.0417H51.3337V27.5H4.66699V16.0417Z" stroke="#6D1718" stroke-linecap="round" stroke-linejoin="round"/>
</svg>
