<svg width="83" height="83" viewBox="0 0 83 83" fill="none" xmlns="http://www.w3.org/2000/svg">
<path d="M10.375 62.25V41.5C10.375 33.2451 13.6542 25.3284 19.4913 19.4913C25.3284 13.6542 33.2451 10.375 41.5 10.375C49.7549 10.375 57.6716 13.6542 63.5087 19.4913C69.3458 25.3284 72.625 33.2451 72.625 41.5V62.25M72.625 65.7083C72.625 67.5427 71.8963 69.302 70.5992 70.5992C69.302 71.8963 67.5427 72.625 65.7083 72.625H62.25C60.4156 72.625 58.6563 71.8963 57.3592 70.5992C56.0621 69.302 55.3333 67.5427 55.3333 65.7083V55.3333C55.3333 53.4989 56.0621 51.7396 57.3592 50.4425C58.6563 49.1454 60.4156 48.4167 62.25 48.4167H72.625V65.7083ZM10.375 65.7083C10.375 67.5427 11.1037 69.302 12.4008 70.5992C13.698 71.8963 15.4573 72.625 17.2917 72.625H20.75C22.5844 72.625 24.3437 71.8963 25.6408 70.5992C26.9379 69.302 27.6667 67.5427 27.6667 65.7083V55.3333C27.6667 53.4989 26.9379 51.7396 25.6408 50.4425C24.3437 49.1454 22.5844 48.4167 20.75 48.4167H10.375V65.7083Z" stroke="#6D1718" stroke-linecap="round" stroke-linejoin="round"/>
</svg>
