<svg width="112" height="111" viewBox="0 0 112 111" fill="none" xmlns="http://www.w3.org/2000/svg">
<path d="M97.2536 21.3213C94.87 18.9579 92.04 17.0831 88.9252 15.804C85.8104 14.5249 82.4718 13.8666 79.1002 13.8666C75.7286 13.8666 72.39 14.5249 69.2752 15.804C66.1604 17.0831 63.3304 18.9579 60.9469 21.3213L56.0002 26.2238L51.0536 21.3213C46.239 16.5497 39.709 13.8691 32.9002 13.8691C26.0914 13.8691 19.5615 16.5497 14.7469 21.3213C9.93233 26.0928 7.22754 32.5645 7.22754 39.3125C7.22754 46.0605 9.93233 52.5322 14.7469 57.3038L56.0002 98.1888L97.2536 57.3038C99.6382 54.9415 101.53 52.1368 102.82 49.0498C104.111 45.9628 104.775 42.654 104.775 39.3125C104.775 35.971 104.111 32.6623 102.82 29.5753C101.53 26.4883 99.6382 23.6835 97.2536 21.3213Z" stroke="#6D1718" stroke-width="2" stroke-linecap="round" stroke-linejoin="round"/>
</svg>
