<svg width="84" height="83" viewBox="0 0 84 83" fill="none" xmlns="http://www.w3.org/2000/svg">
<path d="M31.815 31.125C32.6379 28.8136 34.262 26.8647 36.3998 25.6232C38.5377 24.3818 41.0511 23.928 43.4951 24.3422C45.9391 24.7564 48.1559 26.0119 49.7528 27.8863C51.3497 29.7608 52.2237 32.1331 52.22 34.5833C52.22 41.5 41.72 44.9583 41.72 44.9583M42 58.7916H42.035M77 41.5C77 60.5998 61.33 76.0833 42 76.0833C22.67 76.0833 7 60.5998 7 41.5C7 22.4001 22.67 6.91663 42 6.91663C61.33 6.91663 77 22.4001 77 41.5Z" stroke="#522504" stroke-linecap="round" stroke-linejoin="round"/>
</svg>
