<svg width="71" height="84" viewBox="0 0 71 84" fill="none" xmlns="http://www.w3.org/2000/svg">
<path d="M70.5 34.4545C70.5 60.8636 35.5 83.5 35.5 83.5C35.5 83.5 0.5 60.8636 0.5 34.4545C0.5 25.4492 4.18749 16.8128 10.7513 10.4451C17.315 4.07734 26.2174 0.5 35.5 0.5C44.7826 0.5 53.685 4.07734 60.2487 10.4451C66.8125 16.8128 70.5 25.4492 70.5 34.4545Z" stroke="#6D1718" stroke-linecap="round" stroke-linejoin="round"/>
<path d="M35.5 45.7727C41.9433 45.7727 47.1667 40.7054 47.1667 34.4545C47.1667 28.2037 41.9433 23.1364 35.5 23.1364C29.0567 23.1364 23.8333 28.2037 23.8333 34.4545C23.8333 40.7054 29.0567 45.7727 35.5 45.7727Z" stroke="#6D1718" stroke-linecap="round" stroke-linejoin="round"/>
</svg>
