<svg width="83" height="84" viewBox="0 0 83 84" fill="none" xmlns="http://www.w3.org/2000/svg">
<path d="M60.5207 22.75H60.5553M24.2082 7H58.7915C68.3414 7 76.0832 14.835 76.0832 24.5V59.5C76.0832 69.165 68.3414 77 58.7915 77H24.2082C14.6582 77 6.9165 69.165 6.9165 59.5V24.5C6.9165 14.835 14.6582 7 24.2082 7ZM55.3332 39.795C55.76 42.7079 55.2684 45.6828 53.9283 48.2966C52.5881 50.9103 50.4678 53.0299 47.8688 54.3539C45.2698 55.6778 42.3245 56.1386 39.4518 55.6708C36.5791 55.2029 33.9253 53.8303 31.8678 51.7481C29.8104 49.6658 28.4541 46.9801 27.9918 44.0727C27.5296 41.1654 27.9849 38.1846 29.293 35.5543C30.6012 32.924 32.6956 30.7781 35.2782 29.4218C37.8609 28.0656 40.8004 27.5681 43.6786 28C46.6144 28.4406 49.3324 29.8251 51.4311 31.9491C53.5298 34.073 54.8978 36.8238 55.3332 39.795Z" stroke="#6D1718" stroke-width="2" stroke-linecap="round" stroke-linejoin="round"/>
</svg>
