<svg width="58" height="58" viewBox="0 0 58 58" fill="none" xmlns="http://www.w3.org/2000/svg">
<path d="M42.2916 15.7084H42.3158M16.9166 4.83337H41.0833C47.7567 4.83337 53.1666 10.2433 53.1666 16.9167V41.0834C53.1666 47.7568 47.7567 53.1667 41.0833 53.1667H16.9166C10.2432 53.1667 4.83331 47.7568 4.83331 41.0834V16.9167C4.83331 10.2433 10.2432 4.83337 16.9166 4.83337ZM38.6666 27.4775C38.9649 29.4888 38.6214 31.5429 37.6849 33.3477C36.7484 35.1524 35.2667 36.616 33.4506 37.5301C31.6344 38.4442 29.5762 38.7624 27.5688 38.4394C25.5614 38.1164 23.7069 37.1686 22.2692 35.7308C20.8314 34.2931 19.8837 32.4387 19.5606 30.4312C19.2376 28.4238 19.5558 26.3656 20.4699 24.5494C21.3841 22.7333 22.8476 21.2516 24.6524 20.3151C26.4571 19.3787 28.5112 19.0351 30.5225 19.3334C32.574 19.6376 34.4734 20.5936 35.9399 22.0601C37.4064 23.5267 38.3624 25.426 38.6666 27.4775Z" stroke="#F9F4F0" stroke-width="2" stroke-linecap="round" stroke-linejoin="round"/>
</svg>
