<svg width="111" height="103" viewBox="0 0 111 103" fill="none" xmlns="http://www.w3.org/2000/svg">
<path d="M25.8471 29.1091C25.8926 28.9707 25.9324 28.8296 25.9608 28.6859C26.3132 26.9557 28.0243 16.4525 18.2893 14.3072C7.67309 11.9675 -2.19555 23.5487 0.427939 46.3571C3.05143 69.1656 9.04595 89.9883 15.1684 94.665C21.2908 99.3417 30.5313 104.724 38.4017 93.2623C46.1074 82.0377 48.0259 51.0764 51.2861 48.2523C51.4453 48.1166 51.6073 47.9835 51.7494 47.8344C53.1109 46.3917 59.5716 40.2405 61.1349 51.6806C62.6953 63.1154 58.2726 70.7227 57.562 72.3969C57.4682 72.6205 57.3289 72.8255 57.2494 73.0544C56.2261 75.9477 50.2487 94.5346 63.133 101.216C77.1231 108.469 100.356 91.7398 103.105 84.4892C105.854 77.2386 116.72 63.7862 107.101 31.7362C97.4828 -0.31376 92.3609 -0.196645 84.8685 0.0375876C77.3761 0.27182 78.6239 11.3846 79.4965 13.7242C80.3691 16.0639 100.231 62.3835 99.8562 69.5196C99.481 76.6557 99.6061 90.691 84.9907 89.0541C70.3754 87.4171 67.7547 68.934 71.5009 57.1212C75.2471 45.3084 86.7388 18.2865 59.7592 13.9585C33.5015 9.74761 36.1108 49.4634 36.27 51.5928C36.2757 51.6593 36.2785 51.7232 36.2785 51.7897C36.3211 54.2013 36.8953 95.751 24.1616 92.9109C11.4278 90.0709 13.4033 72.4448 17.3769 54.4941C17.4053 54.3716 17.4366 54.2492 17.4792 54.1294L25.8528 29.1064L25.8471 29.1091Z" fill="#F9F4F0"/>
</svg>
