<svg width="775" height="121" viewBox="0 0 775 121" fill="none" xmlns="http://www.w3.org/2000/svg">
<path d="M38.4297 62.6607H472.594L486.777 43.2143H38.4297V62.6607Z" fill="#D9A5A6"/>
<path d="M471.832 62.6607H723.76V43.2143H485.959L471.832 62.6607Z" fill="white"/>
<ellipse cx="37.3623" cy="37.8125" rx="37.3623" ry="37.8125" transform="matrix(1 0 0 -1 0 88.5893)" fill="#D9A5A6"/>
<ellipse cx="37.3623" cy="37.8125" rx="37.3623" ry="37.8125" transform="matrix(1 0 0 -1 168.664 88.5893)" fill="#D9A5A6"/>
<ellipse cx="37.3623" cy="37.8125" rx="37.3623" ry="37.8125" transform="matrix(1 0 0 -1 337.328 90.75)" fill="#D9A5A6"/>
<ellipse cx="37.3623" cy="37.8125" rx="37.3623" ry="37.8125" transform="matrix(1 0 0 -1 505.992 88.5893)" fill="white"/>
<ellipse cx="37.3623" cy="37.8125" rx="37.3623" ry="37.8125" transform="matrix(1 0 0 -1 674.656 88.5893)" fill="white"/>
<path d="M28.4588 116.554C28.4588 116.191 28.4908 115.828 28.5548 115.466C28.6188 115.092 28.7415 114.724 28.9228 114.362C29.1042 113.999 29.3708 113.652 29.7228 113.322C30.0748 112.98 30.5388 112.66 31.1148 112.362C31.4242 112.202 31.7442 112.047 32.0748 111.898C32.4055 111.738 32.7148 111.567 33.0028 111.386C33.3015 111.194 33.5362 110.98 33.7068 110.746C33.8882 110.5 33.9788 110.212 33.9788 109.882C33.9788 109.615 33.8988 109.354 33.7388 109.098C33.5895 108.842 33.3548 108.634 33.0348 108.474C32.7255 108.314 32.3362 108.234 31.8668 108.234C31.5255 108.234 31.2162 108.282 30.9388 108.378C30.6615 108.474 30.4162 108.596 30.2028 108.746C29.9895 108.884 29.8082 109.028 29.6588 109.178C29.5095 109.316 29.3868 109.434 29.2908 109.53L28.6028 108.778C28.6562 108.714 28.7735 108.602 28.9548 108.442C29.1468 108.271 29.3868 108.095 29.6748 107.914C29.9735 107.732 30.3202 107.578 30.7148 107.45C31.1202 107.322 31.5628 107.258 32.0428 107.258C32.6935 107.258 33.2482 107.375 33.7068 107.61C34.1762 107.834 34.5335 108.138 34.7788 108.522C35.0242 108.906 35.1468 109.322 35.1468 109.77C35.1468 110.207 35.0508 110.586 34.8588 110.906C34.6775 111.215 34.4375 111.487 34.1388 111.722C33.8508 111.946 33.5468 112.143 33.2268 112.314C32.9175 112.474 32.6348 112.612 32.3788 112.73C31.8775 112.964 31.4562 113.199 31.1148 113.434C30.7735 113.668 30.5015 113.908 30.2988 114.154C30.0962 114.388 29.9362 114.623 29.8188 114.858C29.7122 115.082 29.6375 115.316 29.5948 115.562H35.3228V116.554H28.4588ZM40.2906 118.938C39.4906 118.938 38.7652 118.735 38.1146 118.33C37.4639 117.935 36.9786 117.412 36.6586 116.762L37.3786 116.218C37.6772 116.74 38.0826 117.162 38.5946 117.482C39.1172 117.802 39.6879 117.962 40.3066 117.962C40.8399 117.962 41.3146 117.844 41.7306 117.61C42.1572 117.375 42.4932 117.05 42.7386 116.634C42.9946 116.218 43.1226 115.738 43.1226 115.194C43.1226 114.671 42.9999 114.212 42.7546 113.818C42.5199 113.412 42.1946 113.098 41.7786 112.874C41.3732 112.65 40.9146 112.538 40.4026 112.538C39.9119 112.538 39.4426 112.65 38.9946 112.874C38.5466 113.087 38.1839 113.402 37.9066 113.818H36.8986L38.1626 107.418H43.6506V108.426H38.9786L38.1946 112.506C38.4719 112.207 38.8132 111.978 39.2186 111.818C39.6239 111.647 40.0612 111.562 40.5306 111.562C41.2239 111.562 41.8479 111.716 42.4026 112.026C42.9679 112.335 43.4159 112.762 43.7466 113.306C44.0772 113.85 44.2426 114.474 44.2426 115.178C44.2426 115.924 44.0612 116.58 43.6986 117.146C43.3466 117.711 42.8719 118.148 42.2746 118.458C41.6772 118.778 41.0159 118.938 40.2906 118.938Z" fill="#6D1718"/>
<path d="M198.476 118.938C197.676 118.938 196.95 118.735 196.3 118.33C195.649 117.935 195.164 117.412 194.844 116.762L195.564 116.218C195.862 116.74 196.268 117.162 196.78 117.482C197.302 117.802 197.873 117.962 198.492 117.962C199.025 117.962 199.5 117.844 199.916 117.61C200.342 117.375 200.678 117.05 200.924 116.634C201.18 116.218 201.308 115.738 201.308 115.194C201.308 114.671 201.185 114.212 200.94 113.818C200.705 113.412 200.38 113.098 199.964 112.874C199.558 112.65 199.1 112.538 198.588 112.538C198.097 112.538 197.628 112.65 197.18 112.874C196.732 113.087 196.369 113.402 196.092 113.818H195.084L196.348 107.418H201.836V108.426H197.164L196.38 112.506C196.657 112.207 196.998 111.978 197.404 111.818C197.809 111.647 198.246 111.562 198.716 111.562C199.409 111.562 200.033 111.716 200.588 112.026C201.153 112.335 201.601 112.762 201.932 113.306C202.262 113.85 202.428 114.474 202.428 115.178C202.428 115.924 202.246 116.58 201.884 117.146C201.532 117.711 201.057 118.148 200.46 118.458C199.862 118.778 199.201 118.938 198.476 118.938ZM211.915 111.866C211.915 112.804 211.739 113.642 211.387 114.378C211.045 115.103 210.571 115.674 209.963 116.09C209.355 116.506 208.667 116.714 207.899 116.714C207.131 116.714 206.443 116.506 205.835 116.09C205.237 115.674 204.763 115.103 204.411 114.378C204.059 113.642 203.883 112.804 203.883 111.866C203.883 110.927 204.059 110.095 204.411 109.37C204.763 108.634 205.237 108.058 205.835 107.642C206.443 107.215 207.131 107.002 207.899 107.002C208.667 107.002 209.355 107.215 209.963 107.642C210.571 108.058 211.045 108.634 211.387 109.37C211.739 110.095 211.915 110.927 211.915 111.866ZM210.811 111.866C210.811 111.108 210.688 110.442 210.443 109.866C210.197 109.29 209.856 108.842 209.419 108.522C208.981 108.191 208.475 108.026 207.899 108.026C207.323 108.026 206.816 108.191 206.379 108.522C205.941 108.842 205.595 109.29 205.339 109.866C205.093 110.442 204.971 111.108 204.971 111.866C204.971 112.623 205.093 113.29 205.339 113.866C205.595 114.442 205.941 114.89 206.379 115.21C206.816 115.53 207.323 115.69 207.899 115.69C208.475 115.69 208.981 115.53 209.419 115.21C209.856 114.879 210.197 114.431 210.443 113.866C210.688 113.29 210.811 112.623 210.811 111.866Z" fill="#6D1718"/>
<path d="M365.174 115.562V116.554H359.75V115.562H362.022V108.714C361.936 108.842 361.792 108.98 361.59 109.13C361.387 109.279 361.152 109.418 360.886 109.546C360.63 109.674 360.374 109.78 360.118 109.866C359.862 109.951 359.627 109.994 359.414 109.994V108.938C359.659 108.938 359.926 108.868 360.214 108.73C360.502 108.591 360.779 108.431 361.046 108.25C361.312 108.068 361.536 107.898 361.718 107.738C361.899 107.578 362 107.471 362.022 107.418H363.142V115.562H365.174ZM369.713 118.938C368.913 118.938 368.188 118.735 367.537 118.33C366.887 117.935 366.401 117.412 366.081 116.762L366.801 116.218C367.1 116.74 367.505 117.162 368.017 117.482C368.54 117.802 369.111 117.962 369.729 117.962C370.263 117.962 370.737 117.844 371.153 117.61C371.58 117.375 371.916 117.05 372.161 116.634C372.417 116.218 372.545 115.738 372.545 115.194C372.545 114.671 372.423 114.212 372.177 113.818C371.943 113.412 371.617 113.098 371.201 112.874C370.796 112.65 370.337 112.538 369.825 112.538C369.335 112.538 368.865 112.65 368.417 112.874C367.969 113.087 367.607 113.402 367.329 113.818H366.321L367.585 107.418H373.073V108.426H368.401L367.617 112.506C367.895 112.207 368.236 111.978 368.641 111.818C369.047 111.647 369.484 111.562 369.953 111.562C370.647 111.562 371.271 111.716 371.825 112.026C372.391 112.335 372.839 112.762 373.169 113.306C373.5 113.85 373.665 114.474 373.665 115.178C373.665 115.924 373.484 116.58 373.121 117.146C372.769 117.711 372.295 118.148 371.697 118.458C371.1 118.778 370.439 118.938 369.713 118.938ZM383.152 111.866C383.152 112.804 382.976 113.642 382.624 114.378C382.283 115.103 381.808 115.674 381.2 116.09C380.592 116.506 379.904 116.714 379.136 116.714C378.368 116.714 377.68 116.506 377.072 116.09C376.475 115.674 376 115.103 375.648 114.378C375.296 113.642 375.12 112.804 375.12 111.866C375.12 110.927 375.296 110.095 375.648 109.37C376 108.634 376.475 108.058 377.072 107.642C377.68 107.215 378.368 107.002 379.136 107.002C379.904 107.002 380.592 107.215 381.2 107.642C381.808 108.058 382.283 108.634 382.624 109.37C382.976 110.095 383.152 110.927 383.152 111.866ZM382.048 111.866C382.048 111.108 381.926 110.442 381.68 109.866C381.435 109.29 381.094 108.842 380.656 108.522C380.219 108.191 379.712 108.026 379.136 108.026C378.56 108.026 378.054 108.191 377.616 108.522C377.179 108.842 376.832 109.29 376.576 109.866C376.331 110.442 376.208 111.108 376.208 111.866C376.208 112.623 376.331 113.29 376.576 113.866C376.832 114.442 377.179 114.89 377.616 115.21C378.054 115.53 378.56 115.69 379.136 115.69C379.712 115.69 380.219 115.53 380.656 115.21C381.094 114.879 381.435 114.431 381.68 113.866C381.926 113.29 382.048 112.623 382.048 111.866Z" fill="#6D1718"/>
<path d="M528.046 116.554C528.046 116.191 528.078 115.828 528.142 115.466C528.206 115.092 528.328 114.724 528.51 114.362C528.691 113.999 528.958 113.652 529.31 113.322C529.662 112.98 530.126 112.66 530.702 112.362C531.011 112.202 531.331 112.047 531.662 111.898C531.992 111.738 532.302 111.567 532.59 111.386C532.888 111.194 533.123 110.98 533.294 110.746C533.475 110.5 533.566 110.212 533.566 109.882C533.566 109.615 533.486 109.354 533.326 109.098C533.176 108.842 532.942 108.634 532.622 108.474C532.312 108.314 531.923 108.234 531.454 108.234C531.112 108.234 530.803 108.282 530.526 108.378C530.248 108.474 530.003 108.596 529.79 108.746C529.576 108.884 529.395 109.028 529.246 109.178C529.096 109.316 528.974 109.434 528.878 109.53L528.19 108.778C528.243 108.714 528.36 108.602 528.542 108.442C528.734 108.271 528.974 108.095 529.262 107.914C529.56 107.732 529.907 107.578 530.302 107.45C530.707 107.322 531.15 107.258 531.63 107.258C532.28 107.258 532.835 107.375 533.294 107.61C533.763 107.834 534.12 108.138 534.366 108.522C534.611 108.906 534.734 109.322 534.734 109.77C534.734 110.207 534.638 110.586 534.446 110.906C534.264 111.215 534.024 111.487 533.726 111.722C533.438 111.946 533.134 112.143 532.814 112.314C532.504 112.474 532.222 112.612 531.966 112.73C531.464 112.964 531.043 113.199 530.702 113.434C530.36 113.668 530.088 113.908 529.886 114.154C529.683 114.388 529.523 114.623 529.406 114.858C529.299 115.082 529.224 115.316 529.182 115.562H534.91V116.554H528.046ZM544.597 111.866C544.597 112.804 544.421 113.642 544.069 114.378C543.728 115.103 543.253 115.674 542.645 116.09C542.037 116.506 541.349 116.714 540.581 116.714C539.813 116.714 539.125 116.506 538.517 116.09C537.92 115.674 537.445 115.103 537.093 114.378C536.741 113.642 536.565 112.804 536.565 111.866C536.565 110.927 536.741 110.095 537.093 109.37C537.445 108.634 537.92 108.058 538.517 107.642C539.125 107.215 539.813 107.002 540.581 107.002C541.349 107.002 542.037 107.215 542.645 107.642C543.253 108.058 543.728 108.634 544.069 109.37C544.421 110.095 544.597 110.927 544.597 111.866ZM543.493 111.866C543.493 111.108 543.371 110.442 543.125 109.866C542.88 109.29 542.539 108.842 542.101 108.522C541.664 108.191 541.157 108.026 540.581 108.026C540.005 108.026 539.499 108.191 539.061 108.522C538.624 108.842 538.277 109.29 538.021 109.866C537.776 110.442 537.653 111.108 537.653 111.866C537.653 112.623 537.776 113.29 538.021 113.866C538.277 114.442 538.624 114.89 539.061 115.21C539.499 115.53 540.005 115.69 540.581 115.69C541.157 115.69 541.664 115.53 542.101 115.21C542.539 114.879 542.88 114.431 543.125 113.866C543.371 113.29 543.493 112.623 543.493 111.866ZM554.394 111.866C554.394 112.804 554.218 113.642 553.866 114.378C553.525 115.103 553.05 115.674 552.442 116.09C551.834 116.506 551.146 116.714 550.378 116.714C549.61 116.714 548.922 116.506 548.314 116.09C547.717 115.674 547.242 115.103 546.89 114.378C546.538 113.642 546.362 112.804 546.362 111.866C546.362 110.927 546.538 110.095 546.89 109.37C547.242 108.634 547.717 108.058 548.314 107.642C548.922 107.215 549.61 107.002 550.378 107.002C551.146 107.002 551.834 107.215 552.442 107.642C553.05 108.058 553.525 108.634 553.866 109.37C554.218 110.095 554.394 110.927 554.394 111.866ZM553.29 111.866C553.29 111.108 553.168 110.442 552.922 109.866C552.677 109.29 552.336 108.842 551.898 108.522C551.461 108.191 550.954 108.026 550.378 108.026C549.802 108.026 549.296 108.191 548.858 108.522C548.421 108.842 548.074 109.29 547.818 109.866C547.573 110.442 547.45 111.108 547.45 111.866C547.45 112.623 547.573 113.29 547.818 113.866C548.074 114.442 548.421 114.89 548.858 115.21C549.296 115.53 549.802 115.69 550.378 115.69C550.954 115.69 551.461 115.53 551.898 115.21C552.336 114.879 552.677 114.431 552.922 113.866C553.168 113.29 553.29 112.623 553.29 111.866Z" fill="#6D1718"/>
<path d="M701.702 118.586V115.738H696.374V114.778L702.054 107.418H702.79V114.746H704.198V115.738H702.79V118.586H701.702ZM697.526 114.746H701.814V109.13L697.526 114.746ZM713.652 111.866C713.652 112.804 713.476 113.642 713.124 114.378C712.783 115.103 712.308 115.674 711.7 116.09C711.092 116.506 710.404 116.714 709.636 116.714C708.868 116.714 708.18 116.506 707.572 116.09C706.975 115.674 706.5 115.103 706.148 114.378C705.796 113.642 705.62 112.804 705.62 111.866C705.62 110.927 705.796 110.095 706.148 109.37C706.5 108.634 706.975 108.058 707.572 107.642C708.18 107.215 708.868 107.002 709.636 107.002C710.404 107.002 711.092 107.215 711.7 107.642C712.308 108.058 712.783 108.634 713.124 109.37C713.476 110.095 713.652 110.927 713.652 111.866ZM712.548 111.866C712.548 111.108 712.425 110.442 712.18 109.866C711.935 109.29 711.593 108.842 711.156 108.522C710.719 108.191 710.212 108.026 709.636 108.026C709.06 108.026 708.553 108.191 708.116 108.522C707.679 108.842 707.332 109.29 707.076 109.866C706.831 110.442 706.708 111.108 706.708 111.866C706.708 112.623 706.831 113.29 707.076 113.866C707.332 114.442 707.679 114.89 708.116 115.21C708.553 115.53 709.06 115.69 709.636 115.69C710.212 115.69 710.719 115.53 711.156 115.21C711.593 114.879 711.935 114.431 712.18 113.866C712.425 113.29 712.548 112.623 712.548 111.866ZM723.449 111.866C723.449 112.804 723.273 113.642 722.921 114.378C722.579 115.103 722.105 115.674 721.497 116.09C720.889 116.506 720.201 116.714 719.433 116.714C718.665 116.714 717.977 116.506 717.369 116.09C716.771 115.674 716.297 115.103 715.945 114.378C715.593 113.642 715.417 112.804 715.417 111.866C715.417 110.927 715.593 110.095 715.945 109.37C716.297 108.634 716.771 108.058 717.369 107.642C717.977 107.215 718.665 107.002 719.433 107.002C720.201 107.002 720.889 107.215 721.497 107.642C722.105 108.058 722.579 108.634 722.921 109.37C723.273 110.095 723.449 110.927 723.449 111.866ZM722.345 111.866C722.345 111.108 722.222 110.442 721.977 109.866C721.731 109.29 721.39 108.842 720.953 108.522C720.515 108.191 720.009 108.026 719.433 108.026C718.857 108.026 718.35 108.191 717.913 108.522C717.475 108.842 717.129 109.29 716.873 109.866C716.627 110.442 716.505 111.108 716.505 111.866C716.505 112.623 716.627 113.29 716.873 113.866C717.129 114.442 717.475 114.89 717.913 115.21C718.35 115.53 718.857 115.69 719.433 115.69C720.009 115.69 720.515 115.53 720.953 115.21C721.39 114.879 721.731 114.431 721.977 113.866C722.222 113.29 722.345 112.623 722.345 111.866Z" fill="#6D1718"/>
</svg>
