<svg width="775" height="102" viewBox="0 0 775 102" fill="none" xmlns="http://www.w3.org/2000/svg">
<path d="M38.4297 62.6607H472.594L486.777 43.2143H38.4297V62.6607Z" fill="#D9A5A6"/>
<path d="M471.832 62.6607H723.76V43.2143H485.959L471.832 62.6607Z" fill="#FDFCFB"/>
<ellipse cx="37.3623" cy="37.8125" rx="37.3623" ry="37.8125" transform="matrix(1 0 0 -1 0 88.5893)" fill="#D9A5A6"/>
<ellipse cx="37.3623" cy="37.8125" rx="37.3623" ry="37.8125" transform="matrix(1 0 0 -1 168.664 88.5893)" fill="#D9A5A6"/>
<ellipse cx="37.3623" cy="37.8125" rx="37.3623" ry="37.8125" transform="matrix(1 0 0 -1 337.328 90.75)" fill="#D9A5A6"/>
<ellipse cx="37.3623" cy="37.8125" rx="37.3623" ry="37.8125" transform="matrix(1 0 0 -1 505.992 88.5893)" fill="white"/>
<ellipse cx="37.3623" cy="37.8125" rx="37.3623" ry="37.8125" transform="matrix(1 0 0 -1 674.656 88.5893)" fill="white"/>
</svg>
