<svg width="83" height="83" viewBox="0 0 83 83" fill="none" xmlns="http://www.w3.org/2000/svg">
<path d="M41.4997 51.875C47.2296 51.875 51.8747 47.23 51.8747 41.5C51.8747 35.7701 47.2296 31.125 41.4997 31.125C35.7697 31.125 31.1247 35.7701 31.1247 41.5C31.1247 47.23 35.7697 51.875 41.4997 51.875Z" stroke="#6D1718" stroke-linecap="round" stroke-linejoin="round"/>
<path d="M67.0913 51.875C66.631 52.9181 66.4937 54.0752 66.6971 55.1971C66.9005 56.3189 67.4353 57.3542 68.2326 58.1692L68.4401 58.3767C69.0832 59.0191 69.5933 59.7819 69.9414 60.6216C70.2895 61.4612 70.4687 62.3613 70.4687 63.2703C70.4687 64.1792 70.2895 65.0793 69.9414 65.9189C69.5933 66.7586 69.0832 67.5214 68.4401 68.1638C67.7977 68.8069 67.0349 69.317 66.1952 69.6651C65.3556 70.0132 64.4555 70.1924 63.5466 70.1924C62.6376 70.1924 61.7375 70.0132 60.8979 69.6651C60.0582 69.317 59.2954 68.8069 58.653 68.1638L58.4455 67.9563C57.6305 67.159 56.5952 66.6242 55.4734 66.4208C54.3515 66.2174 53.1944 66.3547 52.1513 66.815C51.1285 67.2534 50.2561 67.9813 49.6417 68.9092C49.0272 69.837 48.6974 70.9243 48.693 72.0371V72.625C48.693 74.4595 47.9643 76.2187 46.6672 77.5159C45.37 78.813 43.6108 79.5417 41.7763 79.5417C39.9419 79.5417 38.1826 78.813 36.8855 77.5159C35.5884 76.2187 34.8597 74.4595 34.8597 72.625V72.3138C34.8329 71.1691 34.4624 70.0589 33.7963 69.1276C33.1302 68.1963 32.1993 67.4869 31.1247 67.0917C30.0816 66.6313 28.9245 66.494 27.8026 66.6974C26.6808 66.9009 25.6456 67.4357 24.8305 68.233L24.623 68.4405C23.9806 69.0835 23.2178 69.5937 22.3781 69.9418C21.5385 70.2899 20.6384 70.469 19.7295 70.469C18.8205 70.469 17.9205 70.2899 17.0808 69.9418C16.2411 69.5937 15.4783 69.0835 14.8359 68.4405C14.1928 67.7981 13.6827 67.0353 13.3346 66.1956C12.9865 65.3559 12.8074 64.4559 12.8074 63.5469C12.8074 62.638 12.9865 61.7379 13.3346 60.8982C13.6827 60.0586 14.1928 59.2957 14.8359 58.6534L15.0434 58.4459C15.8407 57.6308 16.3755 56.5956 16.5789 55.4737C16.7824 54.3519 16.645 53.1948 16.1847 52.1517C15.7463 51.1288 15.0184 50.2565 14.0905 49.642C13.1627 49.0276 12.0754 48.6978 10.9626 48.6934H10.3747C8.54026 48.6934 6.78098 47.9647 5.48385 46.6675C4.18673 45.3704 3.45801 43.6111 3.45801 41.7767C3.45801 39.9423 4.18673 38.183 5.48385 36.8859C6.78098 35.5888 8.54026 34.86 10.3747 34.86H10.6859C11.8306 34.8333 12.9408 34.4627 13.8721 33.7966C14.8034 33.1305 15.5128 32.1997 15.908 31.125C16.3684 30.082 16.5057 28.9249 16.3023 27.803C16.0989 26.6811 15.564 25.6459 14.7668 24.8309L14.5593 24.6234C13.9162 23.981 13.406 23.2182 13.0579 22.3785C12.7099 21.5388 12.5307 20.6388 12.5307 19.7298C12.5307 18.8209 12.7099 17.9208 13.0579 17.0812C13.406 16.2415 13.9162 15.4787 14.5593 14.8363C15.2016 14.1932 15.9645 13.683 16.8041 13.335C17.6438 12.9869 18.5438 12.8077 19.4528 12.8077C20.3618 12.8077 21.2618 12.9869 22.1015 13.335C22.9411 13.683 23.704 14.1932 24.3463 14.8363L24.5538 15.0438C25.3689 15.8411 26.4041 16.3759 27.526 16.5793C28.6478 16.7827 29.8049 16.6454 30.848 16.185H31.1247C32.1475 15.7467 33.0199 15.0187 33.6344 14.0909C34.2488 13.1631 34.5786 12.0758 34.583 10.963V10.375C34.583 8.54063 35.3117 6.78135 36.6089 5.48422C37.906 4.18709 39.6653 3.45837 41.4997 3.45837C43.3341 3.45837 45.0934 4.18709 46.3905 5.48422C47.6876 6.78135 48.4163 8.54063 48.4163 10.375V10.6863C48.4208 11.7991 48.7505 12.8864 49.365 13.8142C49.9795 14.7421 50.8518 15.47 51.8747 15.9084C52.9178 16.3687 54.0748 16.5061 55.1967 16.3026C56.3186 16.0992 57.3538 15.5644 58.1688 14.7671L58.3763 14.5596C59.0187 13.9165 59.7815 13.4064 60.6212 13.0583C61.4609 12.7102 62.3609 12.5311 63.2699 12.5311C64.1788 12.5311 65.0789 12.7102 65.9186 13.0583C66.7582 13.4064 67.5211 13.9165 68.1634 14.5596C68.8065 15.202 69.3167 15.9648 69.6648 16.8045C70.0128 17.6442 70.192 18.5442 70.192 19.4532C70.192 20.3621 70.0128 21.2622 69.6648 22.1018C69.3167 22.9415 68.8065 23.7043 68.1634 24.3467L67.9559 24.5542C67.1587 25.3693 66.6238 26.4045 66.4204 27.5263C66.217 28.6482 66.3543 29.8053 66.8147 30.8484V31.125C67.2531 32.1479 67.981 33.0203 68.9088 33.6347C69.8367 34.2492 70.9239 34.5789 72.0368 34.5834H72.6247C74.4591 34.5834 76.2184 35.3121 77.5155 36.6092C78.8126 37.9063 79.5413 39.6656 79.5413 41.5C79.5413 43.3345 78.8126 45.0937 77.5155 46.3909C76.2184 47.688 74.4591 48.4167 72.6247 48.4167H72.3134C71.2006 48.4211 70.1133 48.7509 69.1855 49.3654C68.2576 49.9798 67.5297 50.8522 67.0913 51.875Z" stroke="#6D1718" stroke-linecap="round" stroke-linejoin="round"/>
</svg>
