<svg width="50" height="50" viewBox="0 0 50 50" fill="none" xmlns="http://www.w3.org/2000/svg">
<path d="M2.08331 2.08334H10.4166L16 29.9792C16.1905 30.9383 16.7123 31.7999 17.474 32.4131C18.2358 33.0263 19.1889 33.3521 20.1666 33.3333H40.4166C41.3944 33.3521 42.3475 33.0263 43.1093 32.4131C43.871 31.7999 44.3928 30.9383 44.5833 29.9792L47.9166 12.5H12.5M20.8333 43.75C20.8333 44.9006 19.9006 45.8333 18.75 45.8333C17.5994 45.8333 16.6666 44.9006 16.6666 43.75C16.6666 42.5994 17.5994 41.6667 18.75 41.6667C19.9006 41.6667 20.8333 42.5994 20.8333 43.75ZM43.75 43.75C43.75 44.9006 42.8172 45.8333 41.6666 45.8333C40.5161 45.8333 39.5833 44.9006 39.5833 43.75C39.5833 42.5994 40.5161 41.6667 41.6666 41.6667C42.8172 41.6667 43.75 42.5994 43.75 43.75Z" stroke="#F2E9E5" stroke-width="2" stroke-linecap="round" stroke-linejoin="round"/>
</svg>
